/* XPM */
static char *Z29sZF9jb2lu[] = {
/* columns rows colors chars-per-pixel */
"48 48 236 2 ",
"   c #010000",
".  c #0C0000",
"X  c #0A0806",
"o  c #130301",
"O  c #1A0502",
"+  c #230000",
"@  c #2C0101",
"#  c #2D0A00",
"$  c #320202",
"%  c #3A0100",
"&  c #370A02",
"*  c #341812",
"=  c #460900",
"-  c #540800",
";  c #471603",
":  c #5A1300",
">  c #511502",
",  c #620C00",
"<  c #6B1D01",
"1  c #681802",
"2  c #482105",
"3  c #552C0B",
"4  c #592706",
"5  c #5C370C",
"6  c #542D18",
"7  c #6C2202",
"8  c #672A04",
"9  c #772A01",
"0  c #683602",
"q  c #793702",
"w  c #7C4401",
"e  c #74440A",
"r  c #7A4809",
"t  c #714A19",
"y  c #664727",
"u  c #76562A",
"i  c #73532E",
"p  c #76564A",
"a  c #833501",
"s  c #963800",
"d  c #822400",
"f  c #844904",
"g  c #984805",
"h  c #8C5304",
"j  c #8A560B",
"k  c #9C5C03",
"l  c #945D0B",
"z  c #975A08",
"x  c #895116",
"c  c #A54B04",
"v  c #A85804",
"b  c #B45C0D",
"n  c #9B630C",
"m  c #99630B",
"M  c #996817",
"N  c #AC6C0A",
"B  c #A56707",
"V  c #B4690B",
"C  c #AD720B",
"Z  c #B57A0C",
"A  c #BB7E0D",
"S  c #B47507",
"D  c #A76618",
"F  c #A97316",
"G  c #B67B18",
"H  c #B46814",
"J  c #825728",
"K  c #925F2D",
"L  c #866124",
"P  c #946B28",
"I  c #836333",
"U  c #996D34",
"Y  c #9A7538",
"T  c #AA7B26",
"R  c #B5772E",
"E  c #C17E02",
"W  c #C77B23",
"Q  c #927745",
"!  c #876F4F",
"~  c #BB831D",
"^  c #BD8112",
"/  c #BC800F",
"(  c #BE8A25",
")  c #B78527",
"_  c #AD893B",
"`  c #B48A37",
"'  c #BD953C",
"]  c #C3840E",
"[  c #CA880A",
"{  c #C48511",
"}  c #C68913",
"|  c #CB8B13",
" . c #C48A1D",
".. c #C5881A",
"X. c #D18F12",
"o. c #CD9219",
"O. c #D19116",
"+. c #D2941B",
"@. c #D9991B",
"#. c #C38C24",
"$. c #C28D29",
"%. c #C28720",
"&. c #C6912B",
"*. c #CB952C",
"=. c #CF992E",
"-. c #CA9325",
";. c #D49D2C",
":. c #D79C26",
">. c #C48C32",
",. c #CD9932",
"<. c #C79733",
"1. c #D59F32",
"2. c #D09E3A",
"3. c #D8A12E",
"4. c #DBA533",
"5. c #DEA836",
"6. c #DEAA3A",
"7. c #D6A437",
"8. c #CFA233",
"9. c #E2AD3B",
"0. c #E3AB34",
"q. c #E9B63C",
"w. c #A58442",
"e. c #B18D47",
"r. c #BD9A4A",
"t. c #AA9259",
"y. c #B79B58",
"u. c #AD8854",
"i. c #BBA151",
"p. c #BAA977",
"a. c #A39172",
"s. c #C69B45",
"d. c #C19F50",
"f. c #CBA54C",
"g. c #DEAD41",
"h. c #D5AA46",
"j. c #C4A352",
"k. c #CEB35E",
"l. c #DBB95A",
"z. c #DEB346",
"x. c #E5B343",
"c. c #E7B94A",
"v. c #EABC4D",
"b. c #E9B744",
"n. c #EBBE52",
"m. c #E6BC57",
"M. c #EAB546",
"N. c #CBB46E",
"B. c #DABC66",
"V. c #C1AE77",
"C. c #CCB270",
"Z. c #EDC74C",
"A. c #F4C34C",
"S. c #EEC254",
"D. c #EEC55B",
"F. c #E1C754",
"G. c #F2C553",
"H. c #F5CA53",
"J. c #F1C75A",
"K. c #F2CA5D",
"L. c #F9CC57",
"P. c #FAD25C",
"I. c #FBD456",
"U. c #DEC673",
"Y. c #D9C867",
"T. c #E8C769",
"R. c #F3CC62",
"E. c #F4CF68",
"W. c #F5D163",
"Q. c #FAD363",
"!. c #F3D26A",
"~. c #FAD66C",
"^. c #FCDB6D",
"/. c #FDDB66",
"(. c #E1CC7A",
"). c #E9D478",
"_. c #FAD771",
"`. c #FCDB74",
"'. c #F4DC7C",
"]. c #FCDE7A",
"[. c #F5D774",
"{. c #FDE76C",
"}. c #FEE274",
"|. c #FDE974",
" X c #FCE17C",
".X c #FDEB7C",
"XX c #F7E57F",
"oX c #FFF47B",
"OX c #AE9D8C",
"+X c #C8BB92",
"@X c #D0BC8B",
"#X c #CEC698",
"$X c #D9CA95",
"%X c #E6D485",
"&X c #E7DA96",
"*X c #EFD683",
"=X c #FCE483",
"-X c #FDE985",
";X c #FBE68B",
":X c #FDEC8A",
">X c #F5E589",
",X c #FDF18D",
"<X c #FFF889",
"1X c #EDE49A",
"2X c #FBEC94",
"3X c #FBED99",
"4X c #FEF394",
"5X c #FDF29C",
"6X c #FFFC9E",
"7X c #DDD2A7",
"8X c #E1D4A1",
"9X c #E8DFB1",
"0X c #FCF4A3",
"qX c #FEFCA4",
"wX c #FCF5AB",
"eX c #FDFAAD",
"rX c #F7F3A5",
"tX c #F3EDBD",
"yX c #FCFAB4",
"uX c #FCFCBB",
"iX c #F7F5B4",
"pX c #F1E8A6",
"aX c #E1DDCF",
"sX c #FBFDC3",
"dX c #FBFDCC",
"fX c #F7FACB",
"gX c #FCFED2",
"hX c #FBFDDC",
"jX c #F2F8DF",
"kX c #EFE9CE",
"lX c #FBFDE3",
"zX c #FAFBE7",
"xX c #FDFEF3",
"cX c #FEFEFE",
"vX c #E4E5E8",
"bX c None",
/* pixels */
"bXbXbXbXbXbXbXbXbXbXbXbXbXbXbXbXcXXX5.].,XwXeXyX6X0X0X2X-X`.4XvXbXbXbXbXbXbXbXbXbXbXbXbXbXbXbXbX",
"bXbXbXbXbXbXbXbXbXbXbXbXbXbX%XG  XwXiX6X~ 5 Y -X_.r.< $.gXsXuXsX=XE.bXbXbXbXbXbXbXbXbXbXbXbXbXbX",
"bXbXbXbXbXbXbXbXbXbXbXbX4X].2Xg.0.0 uX0X0X3X5X5X2XrXwXwXyXyXH y xXsXgX6XbXbXbXbXbXbXbXbXbXbXbXbX",
"bXbXbXbXbXbXbXbXbXbXC.. `.sXp.:X.X-X}.  qX)   4 5 @ >. X=X.XdXyX3X|.eXhXuXl.bXbXbXbXbXbXbXbXbXbX",
"bXbXbXbXbXbXbXbXbXA.{.G y :X-X4X<.% > : f U d.a k F.R 9 q 2X@ 0XdXdXrXX *.lXcXbXbXbXbXbXbXbXbXbX",
"bXbXbXbXbXbXbXbXq :XsX_  X.X.XyXp C.A .XH q.I.:X,.S.D R.>.R 8.m XXwXlXhXB iXhX=XbXbXbXbXbXbXbXbX",
"bXbXbXbXbXbXbXo /.q.-X X2 L OX: H.W.&.rXyXcX= -.>X'.'.,Xa v !.^.l ..q 3XhXrX&XlX_.bXbXbXbXbXbXbX",
"bXbXbXbXbXbX8 6.0 ~.|.'.u.(.{.9.M wXT o Y w y.W b k.j 0X+ uXsX' 5XK.7.hXhXlXlXN.uX}.bXbXbXbXbXbX",
"bXbXbXbXbXA.;XK _.g.1.o eXd x.dX*.r.[ ..=XwX0XuXyXyXyX:Xl 7 gXeXrX`.:.$ w ;.lXhXP lXxXbXbXbXbXbX",
"bXbXbXbX1.n.>._.G.f 5 e % ;.V t .X:X5X0X0XwX0XwXeXyXyXuXuXuXW.h.fXxXr g 3.9 F lXhXy xX_ bXbXbXbX",
"bXbXbXbXa ].].A.x.4 7 Q.i 4 B.W.2X2X0X3X0X0XwXwXwXiXuXyXyXyXyXuXv.2.Q /.I.W.3 5XhXR.hXdXbXbXbXbX",
"bXbXbX=XE B.R.Q.gXG ,.wX@ & -X=X=X3X0X5XwXwXwXwXwXyXyXyXuXsXyXyXsXuX$ O D.F g :XfXzXU.eXcXbXbXbX",
"bXbXbXK.0 ~.c ~.e /.n.. t =X].=X=X=X2XwX5X0XwXwXyXyXyXuXyXuXyXsXsXdXsX& o uX9.o gXyXzX8 lXbXbXbX",
"bXbX=X#X$XR.l > `.:Xz k. X X~.=X].=X2X5X5XwXeXeXeXyXeXuXsXyXsXuXdXgXgXsXn.lXf 5.u f.zX7 7 cXbXbX",
"bXbXQ.> ].L.$.& 2.s.&XR.~.].=X=X-X-X-X2XwXwXwXtXwXyXyXyXuXsXsXsXsXsXsXgX!.B.1 9.9 cXgXcXo lXbXbX",
"bX,XwXI P.l @ %XgX= #X[.P. X}.=X].].-X-X2XwX0XwXeXyXyXuXuXsXsXsXgXgXsXsXgX7 f 4Xr 1 f.lXl dXlXbX",
"bXA.F ~.| lX< /.8 k.`.P.~.~.`.=X-X-X;X3X2X0X0XwXyXyXuXyXyXsXsXgXsXdXsXdXlXsX( 4 b A.hXwXgXZ sXbX",
"bXQ.n D.cX8Xx.v   +X~.~._._.~.]. X-X-X-X2X3X3XwXwXyXyXyXsXuXsXsXgXdXdXgXgXdXw + g.Z L (.zX1 zXbX",
"B. X6 n.l O G.% b.:X].Q.`._.Q.~._.-X;X=X-X2X5X0XwXtXuXuXsXsXsXsXsXgXhXdXdXgX4XsXQ 1 ; P lX].hXkX",
"rXwX;X].l 5XpXI.t Q._.~.~._.~._.^.`.].}.:X:X2X5X0XyXyXuXuXsXsXdXsXsXdXjXdXdXsX=Xc 4X3 7 lXS uXcX",
"sXdX=Xx.fXA F L J W.=X`.~.D.Q.~.E.~.~.]..X=X;X5XrXwXyXyXsXuXsXsXdXsXsXgXdXfXdXb * C >XhX2XXX0 (.",
":X}.c./.A.<.k & 4XQ.J.J.R.~.G.J.Q.K.Q.~._.=X-X-X2XwXwXyXyXsXuXsXfXgXsXsXdXdXdXq 2 T.e yXdXdXE.*X",
"^.0.g.:XrX] m & 3Xn.K.v.E.G.v.J.H.J.J.P.E.].=X=X2X3XrXeXyXsXuXsXuXsXsXsXfXuXsXI.@ f 9.g.U.gXD.uX",
"Q.h.x.:XiXB zX- 0X9.l.R.c.D.R.n.n.n.A.A.G.R.~.`.=X2XwX5XiXeXyXyXsXsXsXuXuXsXuXH.> m gX%.j.sXi.uX",
"}.v.x.:XwX4Xx O ;Xx.x.5.9.g.9.9.5.x.x.M.v.G.R._.`.XX:X3XwXrXuXyXsXuXuXyXyXyXsXb.. %.s >Xr.uXh.R.",
"5Xn.4.Q.5.b.4Xh yX0.;.5.4.;.f.4.7.9.x.9.9.x.m.J.~._. X;X2XwXwXyXeXyXyXwXwXuXyX_ OX.XB.Z.2XyXj.d.",
"sXsXyX0.1X,XqXr ; 1.X.;.,.,.1.+.,.6.6.1.0.4.9.n.E.~.]. X4X2X0X0XwXwXyXwXwXwXuX# f.0 g xXv.|.B hX",
"A yXfXA.: 7XW.- 8XO.:.*.| +.{ -.;.s.1.&.1.4.9.9.n.S.~.-X=X=X2X3X0XwX0X3XwXwXwXV.q..Xy . =XU eX7X",
"bX3.. | N @ 1.g *XeX] O.{ ] } | 3.$.<.4.&.1.*.4.M.M.Q.R.~. X-X:X X,X5X3X5X2X2XxX=XZ % sXrX$ ,XbX",
"bXx.*.1.4XlXyX@.t u { } { { ] ,.{ | ( | =.$.&.0.9.x.v.R.R.~. X]. X=X-X3X,X5XJ 6X(.O.N.f 2X2XuXbX",
"bX~.dXyX{ S zX{ P.eXQ.| O.] $.{ ( { ..$.;.,.;.4.;.0.n.n.H.~._.]. X].:X2X,XrX&Xm ;X$ k.fX|.&.I bX",
"bXbXb.= O.< e.+.1.D 6 A | #.} #.[ { { *. .;.=.) ;.,.f.n.v.K.R.~.].}.=X X0X2 '.~ ;X`.:X2X@ gXR.bX",
"bXbX] v.} +.M cXr & a dX] :.=.O.}  .%. .&.$.( &.,.*.4.5.v.n.R.Q.~.]. X=X4X7.N M r >X&X2XcXsXbXbX",
"bXbXA A.V.4.7 dXD.+XG xX5X-.:.&.X.{ } #. .A ..=.*.;.=.9.x.n.n.P.`.`.].].Y V c lXj.W.3XY sX~.bXbX",
"bXbXbX{ z Z / g & < pX@ |.0X{ :.#.} { ^ ..Z Z ^ ( &.,.7.6.x.v.R.~.`.`.z.3 x e.# g 0XyXk wXbXbXbX",
"bXbXbXe.:.sXv.Z q zXp.l e gXuX] #...| A Z Z S Z Z #.#.>.g.x.c.R.R.'.x 9 #.H ; C o 3XqX=X(.bXbXbX",
"bXbXbXbX:.$XxXP.7 b.l.@X:Xb.m jXA { } A Z S Z C  .~ ( 8.9.5.S.S.w.3 oX-X$Xr.Y.w wXr.C o bXbXbXbX",
"bXbXbXbXbX:.eXgXI.3 l.zXtXo.: @ gXdX+.A Z N N / / >.^ &.r.].N.y.= T D uXO &X3 5X,XqX>XbXbXbXbXbX",
"bXbXbXbXbXbXP.~ wXv.4 s a.z.` ;Xh @ iX- 2XeX!.b.7.'.5X%X% {.1 9 [ ; 4Xj . 2 rX>Xx rXg.bXbXbXbXbX",
"bXbXbXbXbXbX9 W.I.sXS.M *Xi.N B i 8 oX@ & {.a t.i.f (.> 8 S.0.h.p *XZ.Z.o 2X,X` 2X3 bXbXbXbXbXbX",
"bXbXbXbXbXbXbXP 9.0.jXx.q T.w < 1X% 9 Z.%XD.S R.q rX5.;., n gXa % = yX:.}._ ).3X_ bXbXbXbXbXbXbX",
"bXbXbXbXbXbXbXbXbXC &X@ #.Z x #Xa ).%Xc ~ rXJ 1XM T.sXlX).<.'.+ aX&  XS.6 m [.P bXbXbXbXbXbXbXbX",
"bXbXbXbXbXbXbXbXbXbXw  .P.hX$.l 0 | + ) qX}.$., - s.F 6X!   i +.J.W.) M 2X4 bXbXbXbXbXbXbXbXbXbX",
"bXbXbXbXbXbXbXbXbXbXbXE.9 c.uXrXN v j f 3 M K.4XfXy   A n Z 3.*.) kXsXv.Q bXbXbXbXbXbXbXbXbXbXbX",
"bXbXbXbXbXbXbXbXbXbXbXbXbXh h B -.%.6X>XN l l v k N N A rXP.iX<X1.$.  bXbXbXbXbXbXbXbXbXbXbXbXbX",
"bXbXbXbXbXbXbXbXbXbXbXbXbXbXbXY h j v m.h.!.dXeX0XdX}.T E B N B t.bXbXbXbXbXbXbXbXbXbXbXbXbXbXbX",
"bXbXbXbXbXbXbXbXbXbXbXbXbXbXbXbXbXbX9X> 5 0 e e h h h n f 7XbXbXbXbXbXbXbXbXbXbXbXbXbXbXbXbXbXbX",
"bXbXbXbXbXbXbXbXbXbXbXbXbXbXbXbXbXbXbXbXbXbXbXbXbXbXbXbXbXbXbXbXbXbXbXbXbXbXbXbXbXbXbXbXbXbXbXbX"
};
