/* XPM */
static char *result[] = {
/* columns rows colors chars-per-pixel */
"48 48 244 2 ",
"   c #000200",
".  c #020B01",
"X  c #0A0800",
"o  c #021500",
"O  c #0D1603",
"+  c #021B00",
"@  c #0A1B01",
"#  c #141C03",
"$  c #151D0F",
"%  c #042401",
"&  c #0C2303",
"*  c #042B01",
"=  c #0B2B02",
"-  c #0E240A",
";  c #122401",
":  c #122B03",
">  c #1A2A03",
",  c #14250B",
"<  c #192908",
"1  c #053300",
"2  c #0B3402",
"3  c #043B01",
"4  c #0C3B02",
"5  c #0F3F08",
"6  c #133503",
"7  c #1B3403",
"8  c #133C03",
"9  c #1A3C04",
"0  c #15330A",
"q  c #1B320A",
"w  c #163C09",
"e  c #1B3B0B",
"r  c #1A3D11",
"t  c #1B2F15",
"y  c #2B2E02",
"u  c #243C04",
"i  c #21340F",
"p  c #243C0A",
"a  c #273404",
"s  c #333C08",
"d  c #283B15",
"f  c #393717",
"g  c #054300",
"h  c #0C4301",
"j  c #074B01",
"k  c #0C4B01",
"l  c #134403",
"z  c #1A4404",
"x  c #144C03",
"c  c #1B4B03",
"v  c #14440A",
"b  c #1B440C",
"n  c #164C09",
"m  c #1C4C0A",
"M  c #0C5401",
"N  c #0E5900",
"B  c #145302",
"V  c #1B5404",
"C  c #145A02",
"Z  c #1C5C04",
"A  c #165409",
"S  c #1C540B",
"D  c #1D5C0B",
"F  c #115D08",
"G  c #1E4B12",
"H  c #1C4510",
"J  c #1D5111",
"K  c #1F5A10",
"L  c #224B05",
"P  c #23440A",
"I  c #224C0B",
"U  c #2A4C0B",
"Y  c #274608",
"T  c #324D0D",
"R  c #235405",
"E  c #2A5205",
"W  c #225B05",
"Q  c #22540B",
"!  c #2C530C",
"~  c #235B0C",
"^  c #2B5B0C",
"/  c #295F06",
"(  c #335B0A",
")  c #234514",
"_  c #2B4411",
"`  c #234C12",
"'  c #2A4C12",
"]  c #28491B",
"[  c #334C15",
"{  c #3A4A15",
"}  c #245413",
"|  c #2C5313",
" . c #255B12",
".. c #2B5C14",
"X. c #2B541A",
"o. c #2D5C19",
"O. c #265819",
"+. c #345414",
"@. c #335B13",
"#. c #335B1A",
"$. c #385C1B",
"%. c #375418",
"&. c #156301",
"*. c #1B6303",
"=. c #146B00",
"-. c #1D6B03",
";. c #1D630A",
":. c #1F6A09",
">. c #1E7403",
",. c #1E720A",
"<. c #1E6010",
"1. c #226405",
"2. c #2B6305",
"3. c #236B04",
"4. c #2A6D05",
"5. c #24650C",
"6. c #2B640C",
"7. c #246C0B",
"8. c #2B6B0C",
"9. c #32620D",
"0. c #336C0E",
"q. c #36670A",
"w. c #257305",
"e. c #2A7405",
"r. c #257A02",
"t. c #2B7A05",
"y. c #25720C",
"u. c #2B730C",
"i. c #247A0A",
"p. c #2A7A0D",
"a. c #33730D",
"s. c #337B0C",
"d. c #39770D",
"f. c #256312",
"g. c #2C6313",
"h. c #266B12",
"j. c #2C6C14",
"k. c #2C6419",
"l. c #2E6B1A",
"z. c #336315",
"x. c #326B14",
"c. c #3A6C13",
"v. c #34641B",
"b. c #39621B",
"n. c #346D1B",
"m. c #3B6D1C",
"M. c #3A6714",
"N. c #257312",
"B. c #2C7413",
"V. c #2D7A13",
"C. c #2E741A",
"Z. c #297C1A",
"A. c #327414",
"S. c #3C7416",
"D. c #337C13",
"F. c #3B7B14",
"G. c #33741C",
"H. c #3B741B",
"J. c #337B1B",
"K. c #3B7C1B",
"L. c #324926",
"P. c #2E5621",
"I. c #3A5825",
"U. c #2E6B22",
"Y. c #326221",
"T. c #356C22",
"R. c #3D6922",
"E. c #3B6D29",
"W. c #3B6323",
"Q. c #377123",
"!. c #3C7321",
"~. c #367B20",
"^. c #3C7B22",
"/. c #38772B",
"(. c #3A6C32",
"). c #445819",
"_. c #46530E",
"`. c #416E18",
"'. c #436914",
"]. c #516A1E",
"[. c #44731B",
"{. c #417C1D",
"}. c #487A18",
"|. c #5A711A",
" X c #43582D",
".X c #496C24",
"XX c #446724",
"oX c #586C27",
"OX c #437324",
"+X c #437C24",
"@X c #427A2A",
"#X c #497928",
"$X c #4A7C35",
"%X c #587D35",
"&X c #537726",
"*X c #6E7632",
"=X c #2B810B",
"-X c #2F8C0D",
";X c #36870C",
":X c #2B8614",
">X c #348214",
",X c #3C8414",
"<X c #3C8B14",
"1X c #34841B",
"2X c #3B831C",
"3X c #3A891C",
"4X c #348917",
"5X c #3E9414",
"6X c #3FB21A",
"7X c #3D8323",
"8X c #39862A",
"9X c #398822",
"0X c #3F9121",
"qX c #4B841B",
"wX c #428B1B",
"eX c #4A8B1A",
"rX c #45851A",
"tX c #44991F",
"yX c #439519",
"uX c #54831D",
"iX c #49AA1B",
"pX c #428422",
"aX c #458B23",
"sX c #4B8E26",
"dX c #44852A",
"fX c #4C852C",
"gX c #4B8827",
"hX c #54832C",
"jX c #53892B",
"kX c #568726",
"lX c #489223",
"zX c #4C9C22",
"xX c #4B942D",
"cX c #479B27",
"vX c #559226",
"bX c #4B8534",
"nX c #558D30",
"mX c #5C9C31",
"MX c #569432",
"NX c #629424",
"BX c #609031",
"VX c #5BB823",
"CX c #50A725",
"ZX c #6AB030",
/* pixels */
"i.8.i.N.Z.4.A n._ Z K N.3 :.L =.z C >.[.} F C.G.3.5.gX7.x J h &.,XA H <Xf.  A B.S 4 S -.G u.4 V.",
"z.*.i.K.:.V.*.&.b % D *.&.k f.xXf.G t.N.8.2XBXj.c.x u.4 l 7X  v.b.8.J.W.9 g.+ V :.A w * 1.6 S 3X",
"t.y.>Xh e.:.f.*.3 *.u.V 8.t.7X7.8.T.V.sXI tXs.jXk.vXV.7.C. .3Xl S k A C @ r.B.% Z V 7.! C t.+ B ",
"& c D.Z A.C =.C.5.` kXB.-.g B >Xw.1X` % V.8.7.R 7.^.j.k.8.J dXf.3.4 O.4 aXG 1.+.g.v.t Y d.V E.e ",
"2 ] >.r.g D   L C N 9 & B.>.:.-.CXC 3.}.b I @Xu.) S.;.fX7.S H.f.R V.w C.B...R K.W B.w.S 7.aX=./.",
"v.A.3 4 tX*.D D k 9.6 7Xz cXwXB 8.^ -XU I.l 6.D.Z $.bXV +XR B.4.B.y.u.V.C 1 V wXA.W S 5.*.1.&.3 ",
"c 6.B.C n j.$.2 p Z 7.! : OX~.*.:.D.~ x.>.L q.fXe.#.m [.b J.dXD.a.M G.A 5.2 aX.X' R S o R.2 B y.",
"c d.O.z.wX3.J./., j ;Xg.* 9.V.=.J.n V h.6 5.Q.5.2 b 5.x.hXg.n | 1 m  .* @ k ..~ =.E.Q ;.P 5.9.M ",
"H.B.g.5XO n k.*. .A.4 V + z 1.h.B 8.B.2.1.B 8.J.NXR g.7.p aX! J.pXV z @ A x f.y.f.Q.a.S 3.6 W e.",
"D.N.eX7.s.9XX.7.~ l C { x 9.M w Z 6.>Xt.B +.XX% / ..1.) G.c l F.^ !.h.D.+ &.6 & x.n j.b l Z.& n ",
"% <.^.1 o. .3 1Xq.8 yXj g.iX8.x.9 g.g.V B OXl 3XOX|.`.B g.~ k 6.y.% ] ZXH.g M *. .K G.*.y.Z s.S.",
":.G.8XK.G.k 7., #.u.h *.3.8.2 NXj.h & 2XaXx 3.x.3Xi $.~ n > c {.* P f.`.= x K.~ pX+XiX>Xn @ B.& ",
">XN.C.V d G.Z rXz.C.4 7.=XlXy.g Z ( J.4 m.( jX[.^.R O H.: m.h.^ R '.! g.Z c & ^.zXN.l i.g . 8 S.",
"J.F 7X~ & k D y.V Z Z u 1X4 K.B n.f.x S a.W z 6.5.5.m ,X2Xx ~ G.*.0.n u.H.0 ) K.- % n  .C 6.F.g ",
"C.Q u.6.7.B B r.>X* u.V.Z 2 b 7.2 A.S z k.= M 4 3 * u.5.Z K.8.5.;.0.Q D u.C ;X~ 9.3 V } V l 0.6 ",
"* 1Xv D.C K.3 8 B.o l y.J.K.j.W A.V J.I 0 h.@ 7.H.1 O.h.Y.| T {.u.8 D.C S 3 n.P.V.D.. 2 6 l 4.l ",
"* ~ 8.f.*.p 2.v 8.0.2 ! 1.C 5.I z.E 1.m.eXr c 5 k . K.% +.gXzX+ -.u.% C.5.3 cXC.k./ ~ V.c.t.& z.",
"k <XC H.OX#XMXh ;.^ C %X5XV 6.H.&.! B.E B B.eXz + & V Y 2 % u., x.V % ~ 8.8 n.D f.K.~.} 1.R ;.w ",
"x C.k.& ;.3X4XN.8 }.* x.d.P C *.D 2 a = 2.V.1 g.X c = #Xv A fXx.7.j.^.3 w k T.D.P.Z v 6.C ~ B.! ",
"~ -.K.. x.7.I % S hXp.4.; ,Xh iXk 1X/ 8.1 D h.z.$XB.+ g.z p @.,X2 *.m G.yXG.p.=X;X*.^ 1.L VXD.D.",
"= { =.>.A.xXC C &.1.4X~ 7 V.<XQ * > '.8 * 1 Z W H.q V = nXW }.-.W 1.Z w.^ h R ] *.*.A.z <X`.l ,X",
"v h N.jX;.% B Z l C @ 7.7.l z   A B.h.c.J.J.P j.2 4 n.k n.pXh.z.vX|.1 +X@.A.A C a.x w.V 4.^ 3.l ",
"W Q 8 ~.w.&.g.A.V f.z N.2 g.= *.3XS.B W b r.m n.M 3.x A.8.o.. 8.mXD z.B l 6 2 I B.+ V 8.8 * w  .",
"Z t.G.B * 7.A.*.D.c.6.l 5.V g 6 h.z B #X5.6 3 dXjXO ^ @ j.).A.W.< aXB 8.$ 9.f.a.~ R ~ v V e.@.! ",
"n 2.j m *.z.x.} h = 8 H Z.M f.3.a A.A.V 9 = J Q.7...r ^.7X- F Z ~ a.= S.ZX0.yXG.u.x ' 7.m D.@.= ",
"j G.M - j =Xw.-.ZXG 3 D 2.;.Q.-.Z V qXB & $.` D.2 g.K.% 5.bXK.3  .X.. O.A x.j.;.h.1 3.8 S.B.&.g.",
"=XM =.2 h.f.B h uX#XB.Z 2 nX! 1.g %.4.I W 2Xz.e = ~ V S B.Z m a.7.0 9 tX1 u ..= h W h ~ E 2.S a.",
"*.n ~ + % h N B >X= h.^ m 9 Q 5.7 0.G.g...^ e G 5.z N.x.) +X3Xg.X {.g.} K.z.m 5.6 V j.g.@ Q C c ",
"cXS f.y.8.k N.2 2.l K.T a c g.*.W w D | a.l eXU l.x h.6 % x.I ~ 7 = 8XH.O > 6 ~.l v CX= 8.x u.@X",
"m./.9XG h.M -.:.C 7XBX6 W u.Q V j.0 V x @._ U _.. S q f.G.j.1.1 :  .f.c.= c ! dX4 / 7 # %.D Q F.",
"[.2.*.2 } A.x w.} * # C x.sXb z h.7.T S ' a 5.rXsXB.2.B * Q g.n = Q G n.W B ~ { ;.:.U U % B.xX!.",
"VXV 1 Z y.s.,X5.xXB 9 7.: S ~ g.c Z Y.4.B 9.}.B z.x.L dXJ.@ h.H n %X= j Q.h {.b.g.Q   rXL 2 c.W ",
"Z F.k ..B j.A.U 5.:.J.V OXw.L.E z s.v.k.g z 8.> q.6.:._ D.o j.V P c bXL.*.+ z 5.1.1.w 7.L 2.Y 2 ",
"R c -.w.M &.c B 1Xo j x | 5.P.& c.R v dXJ.& *.D n W <X1 k c z...q 8 #.K.j.MXvXQ.z =.U.& U ; q.2 ",
" .@ % Z ;X*.j.#.5.f.h v . # + C +.9 B.B...oXM.R rXg G.g.m B 3XV } = B.B x C u.&.1 2 * A.z.b.$.{ ",
"=.:XwX+ D x R 6.~ k.tXA.r .Xu.9 H.[ ~ Q + C @ A.u.m.z B.1.G.-   F.9 1 9 MXQ wXnX` @Xk.'.j.4.OXoX",
"1 v A.3 3 J.4 D c a.3 h.4 z v h $.,.p.o l W D V 1.v S g.c.gXO.8 o 4 *.I 0 qX3 C.I 0 S.d.R @ +.&X",
":X9 fX-.x c.4X~ 2 * 1XC V.w G H.> 5.+ ^ f.f._ e + b x.D.5.z.H.~.4 /.m U.OXl 3 }. .e.H.M.L c 9 x ",
"g 7.=XQ sX+ 8.F * 3.Q.p.E.} G.jXb F.D., qXg +X^ Z ` g g rXo 2X .A.D 6 ] 2.] * H.v.= A.[.L m..Xv.",
"V 1 * f.k.o  .G.b 8.S 9 3 d.~ o.q A.. G P D _ n.% v D.8.u.M 0 b f.S ] . g.: rXg A pXjXg.n.' 0 }.",
"A m 1.A.V p.N uX% 2 -.5.`.oX4 l.x.J.*.R @ h.5.Q 1 x.#.g.g j V.= % G.R ^.c Z * ].y 2 OXW u.C O.+ ",
"V B  X#XF.c 8 6 J 8.b.2 + H.S S ..~ 9 % ).} Q * e M Q A.T.J.(.x V % D.D v 6 g.o.A 2 Z f.v % * m ",
"1 < =Xh w.;.7 K.Z *.P h I.~ % O.XXH.m ,X> 0 8 _ h r B v F g 6.5.B @ B 3.  qX9.Z c _.*.;X2 $.. *.",
"*XL @X:.D z n.9 o B > x 8.v M *..XE s I . v.] o.+ B V 8.x V A.A.S ).6 w `.m 5.= 6 6 9 0 V S.Q.m.",
"p.h.6.XXv.6 @.*.p.& &X9.C B.+ h 7 v.: G.$.5.k B.G 2 d q ..C 1 * c K.2 4 @.C W r.kXf 9.^.o g.* A.",
"` C.3.6.} t.A 4XM A z.6 n.Z 8 o o v.' > V 8 Z /.T.& A.B h j.* ` S >X2 E.8 C Q r.: e l h.$X2 /.z ",
"v h W ....) t.4 8 ^ u.k.dX* 4.= -.z %.E G.% 1 V 1.o m.*.v.+XwX:.Y.~.l.: o 9.x *.B.# ] >XI # h b.",
"-.[ Z C -.P r.k B 8 3 1 v 8.H.n.D.8 k i.p.6.y.*.3 S.& n 5.x u.1 6 l r 7.c 1 I.6.5.V 2 W : I.z 4 "
};
