/* XPM */
static char *d29sZl8x[] = {
/* columns rows colors chars-per-pixel */
"48 48 202 2 ",
"   c #173049",
".  c #1A334B",
"X  c #1A334C",
"o  c #1B334C",
"O  c #1A344C",
"+  c #1B344C",
"@  c #1C344C",
"#  c #1D344C",
"$  c #1D354C",
"%  c #1D354D",
"&  c #1F344C",
"*  c #1E354D",
"=  c #1F354D",
"-  c #1D364C",
";  c #1F364D",
":  c #1D354E",
">  c #1E354E",
",  c #1F354E",
"<  c #1E364E",
"1  c #1F364E",
"2  c #1E374E",
"3  c #1F374E",
"4  c #1E364F",
"5  c #1D3350",
"6  c #1E3350",
"7  c #1F3850",
"8  c #20364D",
"9  c #20374D",
"0  c #22354F",
"q  c #20364E",
"w  c #20374E",
"e  c #20374F",
"r  c #21374F",
"t  c #22374F",
"y  c #223B49",
"u  c #21384F",
"i  c #22384F",
"p  c #23384F",
"a  c #22394F",
"s  c #23394F",
"d  c #3F3B40",
"f  c #3F3A41",
"g  c #3E3B41",
"h  c #3F3B41",
"j  c #313C4C",
"k  c #233850",
"l  c #223950",
"z  c #233950",
"x  c #243850",
"c  c #243950",
"v  c #253B51",
"b  c #263B51",
"n  c #273D53",
"m  c #223B56",
"M  c #283B51",
"N  c #293C51",
"B  c #283C52",
"V  c #293C52",
"C  c #2D3D50",
"Z  c #283D55",
"A  c #304055",
"S  c #324155",
"D  c #344256",
"F  c #344356",
"G  c #354457",
"H  c #3E4454",
"J  c #304258",
"K  c #324459",
"L  c #33465B",
"P  c #35465A",
"I  c #394559",
"U  c #3B465A",
"Y  c #3C475A",
"T  c #3E475B",
"R  c #37485E",
"E  c #3F485B",
"W  c #3E495B",
"Q  c #38495E",
"!  c #394B5F",
"~  c #3A4A60",
"^  c #4A4348",
"/  c #4A4448",
"(  c #474856",
")  c #484A56",
"_  c #484F5F",
"`  c #4A4F5F",
"'  c #564F59",
"]  c #585159",
"[  c #595159",
"{  c #5A5259",
"}  c #59525A",
"|  c #5A525A",
" . c #5B525A",
".. c #5B535B",
"X. c #5E535A",
"o. c #5E545B",
"O. c #5F565F",
"+. c #60575F",
"@. c #494E60",
"#. c #494F60",
"$. c #4A4F60",
"%. c #455467",
"&. c #545765",
"*. c #595966",
"=. c #565C6E",
"-. c #555F6F",
";. c #625A62",
":. c #665D65",
">. c #675F66",
",. c #615D69",
"<. c #615D6A",
"1. c #625E6A",
"2. c #635E6A",
"3. c #625F6A",
"4. c #635F6A",
"5. c #635E6B",
"6. c #5A6170",
"7. c #64606B",
"8. c #65606B",
"9. c #67616B",
"0. c #66606C",
"q. c #66616C",
"w. c #67616C",
"e. c #6C626B",
"r. c #6C636B",
"t. c #68626C",
"y. c #6C636E",
"u. c #6C646E",
"i. c #6D656E",
"p. c #6C646F",
"a. c #6E656E",
"s. c #6F656E",
"d. c #6F656F",
"f. c #6E666F",
"g. c #6F666F",
"h. c #70666F",
"j. c #71676F",
"k. c #72676F",
"l. c #646775",
"z. c #656776",
"x. c #646C7D",
"c. c #706670",
"v. c #706770",
"b. c #716770",
"n. c #726770",
"m. c #726771",
"M. c #726870",
"N. c #726871",
"B. c #736871",
"V. c #736971",
"C. c #746871",
"Z. c #746971",
"A. c #756971",
"S. c #766971",
"D. c #756A71",
"F. c #756A72",
"G. c #766A72",
"H. c #776B72",
"J. c #687080",
"K. c #6E7584",
"L. c #877E89",
"P. c #86818B",
"I. c #8D838D",
"U. c #8E838E",
"Y. c #8B848D",
"T. c #8C858E",
"R. c #8E848E",
"E. c #8F858F",
"W. c #8D868F",
"Q. c #8D8690",
"!. c #8D8790",
"~. c #8E8790",
"^. c #8F8790",
"/. c #8F8791",
"(. c #8F8891",
"). c #938891",
"_. c #938B93",
"`. c #928C94",
"'. c #948C94",
"]. c #98919A",
"[. c #98929B",
"{. c #9E98A0",
"}. c #A09BA4",
"|. c #A09CA5",
" X c #A09CA6",
".X c #A8A2AB",
"XX c #A8A3AB",
"oX c #AAA4AC",
"OX c #AAA5AC",
"+X c #AAA4AD",
"@X c #AAA5AD",
"#X c #ABA5AD",
"$X c #ABA6AD",
"%X c #ACA6AD",
"&X c #ACA6AE",
"*X c #ADA7AF",
"=X c #AEA7AE",
"-X c #AEA7AF",
";X c #B1AAB1",
":X c #B3ABB2",
">X c #CAD1DD",
",X c None",
/* pixels */
",X,X,X,X,X,X,X,X,X,X,X,X, ,X,X,X,X,X,X,X,X,X,X,X,X,X,X,X,X,X,X,X,X,X,X, ,X,X,X,X,X,X,X,X,X,X,X,X",
",X,X,X,X,X,X,X,X,X,X,X, R.3 ,X,X,X,X,X,X,X,X,X,X,X,X,X,X,X,X,X,X,X,X, R.3 ,X,X,X,X,X,X,X,X,X,X,X",
",X,X,X,X,X,X,X,X,X,X,Xl R.l., ,X,X,X,X,X,X,X,X,X,X,X,X,X,X,X,X,X,X,X, Y., ,X,X,X,X,X,X,X,X,X,X,X",
",X,X,X,X,X,X,X,X,X,X, [ e I., ,X,X,X,X,X,X,X,X,X,X,X,X,X,X,X,X,X,X, I., j., ,X,X,X,X,X,X,X,X,X,X",
",X,X,X,X,X,X,X,X,X,X3 .., L.R., ,X,X,X,X,X,X,X,X,X,X,X,X,X,X,X,X3 R.3 U j., ,X,X,X,X,X,X,X,X,X,X",
",X,X,X,X,X,X,X,X,X,XC [ [ , l.I., , ,X,X,X,X,X,X,X,X,X,X,X,X, u R., E M.M.D ,X,X,X,X,X,X,X,X,X,X",
",X,X,X,X,X,X,X,X,X, [ [ ..v.3 u R.  , ,Xu , , , O , , , $ 3 =.)., v.c.c.v.a., ,X,X,X,X,X,X,X,X,X",
",X,X,X,X,X,X,X,X,X, [ [ e.v.j.Z., R.R., 7.j.v.j.M.j.j.j.e R.R., c.M.c.M.c.v.e ,X,X,X,X,X,X,X,X,X",
",X,X,X,X,X,X,X,X,X, [ [ M.v.j.v.v., R., , c.c.y.M.v.j., , R., v.v.M.v.c.M.v., ,X,X,X,X,X,X,X,X,X",
",X,X,X,X,X,X,X,X,X, [ [ a.v.j.v.v.a., + j.c.c.T a.v.M.c.. , M.a.M.j.v.a.c.v., ,X,X,X,X,X,X,X,X,X",
",X,X,X,X,X,X,X,X,Xe [ [ , , , u w.j., c.j.c.d.T u.v.v.c.v., M.w.u , 3 , c.c.e ,X,X,X,X,X,X,X,X,X",
",X,X,X,X,X,X,X,X,Xe [ ..j., j.v.w.j.M.c.j.c.v.T a.v.c.c.v.M.M.w.M.j., j.c.c.e ,X,X,X,X,X,X,X,X,X",
",X,X,X,X,X,X,X,X,X, [ o.e , 3.v.v.j.v.v.j.v.v.T a.c.M.c.v.c.c.c.M.3., , H.c., ,X,X,X,X,X,X,X,X,X",
",X,X,X,X,X,X,X,X,X, ) , , $ j.v.v.j.v.v.j.v.v.T a.c.c.M.v.c.c.c.c.M., , , *.3 ,X,X,X,X,X,X,X,X,X",
",X,X,X,X,X,X,X,X,X, [ , G a.M.v.d.j.v.v.j.v.v.E a.c.M.c.c.c.M.c.M.c.j.G 3 c., ,X,X,X,X,X,X,X,X,X",
",X,X,X,X,X,X,X,X,X, , o.a.j.j.M.v.j.v.v.j.v.v.c.M.c.c.M.c.M.c.c.c.c.v.M.Z., , ,X,X,X,X,X,X,X,X,X",
",X,X,X,X,X,X,X,X,X, [ [ M.a.j.v.d.c.e e 3.c.c.j.c.c.c.5.e e j.c.c.M.c.M.c.a., ,X,X,X,X,X,X,X,X,X",
",X,X,X,X,X,X,X,X, o.[ y.M.v.j.v.c.c.a.j.l a.c.j.M.c.c.t j.c.c.c.M.c.c.c.M.c.M., ,X,X,X,X,X,X,X,X",
",X,X,X,X,X,X,Xe ' [ [ c.v.v.j.v.E e M c.j.v.j.j.c.v.c.M.c.B e E c.M.c.c.M.c.M.y., ,X,X,X,X,X,X,X",
",X,X,X,X,X,X,Xu ..[ v.c.v.v.O , e.c.Z.e j.v.u.j.M.a.c.c.e Z.j.M., o c.j.c.c.c.M.u ,X,X,X,X,X,X,X",
",X,X,X,X,X,X, [ , l M.a.v.3 l v., , , l Z.M.3 j.j., M.Z.u e , , c.s e j.M.M.u , M., ,X,X,X,X,X,X",
",X,X,X,X,X,X, 6 3 ..[ c., , , v.a., >X3 B v., j.M.e c.B e >Xe a.j.e e $ c.a.j., 7 3 ,X,X,X,X,X,X",
",X,X,X,X,X,X,Xe [ [ +.M., @.l l v.l , , , v., j.c., M., , , u j.l u $., M.c.j.v., ,X,X,X,X,X,X,X",
",X,X,X,X,X,X,Xe ..[ Z.e , v.[ , v.a.v.v.Z.3.v j.M.v 3.Z.c.M.j.a., M.M., e M.j.j., ,X,X,X,X,X,X,X",
",X,X,X,X,X,Xe [ [ , , `.3 [ ..M.u , u , D c.v.j.M.v.M.D , u , u M.c.v., +X, O j.M., ,X,X,X,X,X,X",
",X,X,X,X,X,Xe [ 3 K !.[.3 [ [ M.v.j.v.v., c.d.j.c.v.j., v.c.c.j.c.M.v., +X+XR u M., ,X,X,X,X,X,X",
",X,X,X,X,X,X& , R.(.`.%X, [ ..;.v.j.v.U @.c.v.j.c.c.M._ T M.c.c.j.j.v.u +X+X+XOX, , ,X,X,X,X,X,X",
",X,X,X,X,X,X, , !.!.+X+X{.3 ..[ v.j.v., c.M.v.j.c.c.c.M., c.M.c.j.j.$  X%X+X%X+X3 , ,X,X,X,X,X,X",
",X,X,X,X,X,X,Xv u !.+X%X+X, [ ..>.j.a.e j.v.v.j.M.c.M.c., j.M.v.j.j., +X+X+X%Xu Z ,X,X,X,X,X,X,X",
",X,X,X,X,X,X, l , !.%X%X+X+X3 ( [ >.C 3.j.v.v.j.c.c.c.M.3.A c.v.&.u +X+X%X+X%X$ 3 , ,X,X,X,X,X,X",
",X,X,X,X,X,X, t 3 ].(.$X$X+X+X, , H t c.M.M.c.M.M.c.M.c.j., _ e , +X+X%X+X+X+Xu , 3 ,X,X,X,X,X,X",
",X,X,X,X,X,X,X,X3 !.!.[.+X+X+X+X, j 7 [ [ c.c.c.M.c.c.M.a., j , %X+X+X+X%X+X+X3 ,X,X,X,X,X,X,X,X",
",X,X,X,X,X,X,X,Xy P.~.~.+X+X+X+XK., , [ [ v., u , , 7.j.v., , K.+X$X+X+X%X+X Xm ,X,X,X,X,X,X,X,X",
",X,X,X,X,X,X,X,X,X, ~.~.+X+X+X+X+X3 3 [ .., g d d g , j.M., , +X+X+X+X%X+X+X3 ,X,X,X,X,X,X,X,X,X",
",X,X,X,X,X,X,X,X,X, J (.!.OX$X+X+X%X, [ [ , h d g g , M.c., %X+X+X%X+X+X+XK , ,X,X,X,X,X,X,X,X,X",
",X,X,X,X,X,X,X,X,X,X3 K !.!.OX$X+X+X3 [ [ 3 h h g g , M.c.u +X+X%X+X+X%X! 3 ,X,X,X,X,X,X,X,X,X,X",
",X,X,X,X,X,X,X,X,X,X,X, K (.T.+X+X+X%Xu [ ..u 3 e e j.j.3 %X%X+X+XOX+X! e ,X,X,X,X,X,X,X,X,X,X,X",
",X,X,X,X,X,X,X,X,X,X,X,X3 6., (.+XOX+X%X3 , , , , , , 3 %X%X+X+X+X3 J., ,X,X,X,X,X,X,X,X,X,X,X,X",
",X,X,X,X,X,X,X,X,X,X,X,X,X3 3 , (.'.+X+X+X3 , / / , , %X+X%X:X+X3 , 3 ,X,X,X,X,X,X,X,X,X,X,X,X,X",
",X,X,X,X,X,X,X,X,X,X,X,X,X,X, 3 -.3 !.+X(.+XOX%.! %X+X+X+X%X, x., 3 ,X,X,X,X,X,X,X,X,X,X,X,X,X,X",
",X,X,X,X,X,X,X,X,X,X,X,X,X,X,X,X, 3 , %X(.+X+X+X+X+X+X$X+X, , 3 ,X,X,X,X,X,X,X,X,X,X,X,X,X,X,X,X",
",X,X,X,X,X,X,X,X,X,X,X,X,X,X,X,X,X3 ,X, !.!.+X$X%X+X%X+X, ,X3 ,X,X,X,X,X,X,X,X,X,X,X,X,X,X,X,X,X",
",X,X,X,X,X,X,X,X,X,X,X,X,X,X,X,X,X, ,X, `.!.T.+X+X+X+X:X3 ,X7 ,X,X,X,X,X,X,X,X,X,X,X,X,X,X,X,X,X",
",X,X,X,X,X,X,X,X,X,X,X,X,X,X,X,X,X,X,X,Xe R.!.+X%X+X+X, ,X,X,X,X,X,X,X,X,X,X,X,X,X,X,X,X,X,X,X,X",
",X,X,X,X,X,X,X,X,X,X,X,X,X,X,X,X,X,X,X,X,X3 !.!.OXOX, ,X,X,X,X,X,X,X,X,X,X,X,X,X,X,X,X,X,X,X,X,X",
",X,X,X,X,X,X,X,X,X,X,X,X,X,X,X,X,X,X,X,X,X,X, (.!.u ,X,X,X,X,X,X,X,X,X,X,X,X,X,X,X,X,X,X,X,X,X,X",
",X,X,X,X,X,X,X,X,X,X,X,X,X,X,X,X,X,X,X,X,X,X,X, , ,X,X,X,X,X,X,X,X,X,X,X,X,X,X,X,X,X,X,X,X,X,X,X",
",X,X,X,X,X,X,X,X,X,X,X,X,X,X,X,X,X,X,X,X,X,X,X,X,X,X,X,X,X,X,X,X,X,X,X,X,X,X,X,X,X,X,X,X,X,X,X,X"
};
