/* XPM */
static char *YzFiN2I4MWI1MmNlMmRjZWZmY2ZhNzQ3ZGUwZjkzN2NfMg__[] = {
/* columns rows colors chars-per-pixel */
"48 48 146 2 ",
"   c #020203",
".  c #080407",
"X  c #060907",
"o  c #090806",
"O  c #060609",
"+  c #09050A",
"@  c #0B0B0B",
"#  c #100F0E",
"$  c #11110E",
"%  c #0E0E11",
"&  c #100F12",
"*  c #131314",
"=  c #1A1616",
"-  c #171812",
";  c #1B1A16",
":  c #171719",
">  c #19171A",
",  c #1B1B1C",
"<  c #211E1D",
"1  c #1F201C",
"2  c #22211C",
"3  c #2A251F",
"4  c #1D1D21",
"5  c #211F21",
"6  c #1F2426",
"7  c #232324",
"8  c #292524",
"9  c #2A2926",
"0  c #262529",
"q  c #29272A",
"w  c #27282C",
"e  c #2C2B2C",
"r  c #302E2D",
"t  c #32312E",
"y  c #292730",
"u  c #2E2D31",
"i  c #312F32",
"p  c #2F3034",
"a  c #333334",
"s  c #393635",
"d  c #363835",
"f  c #3B3936",
"g  c #363539",
"h  c #39373A",
"j  c #363A3C",
"k  c #3C3C3B",
"l  c #413D34",
"z  c #413E3C",
"x  c #3E403D",
"c  c #43413E",
"v  c #373740",
"b  c #3E3E41",
"n  c #413E42",
"m  c #3E4144",
"M  c #444343",
"N  c #494644",
"B  c #464847",
"V  c #4B4946",
"C  c #464549",
"Z  c #49464A",
"A  c #47484B",
"S  c #4B4B4B",
"D  c #504748",
"F  c #514E4B",
"G  c #53514E",
"H  c #4D4D52",
"J  c #524E52",
"K  c #584F50",
"L  c #4F5154",
"P  c #545353",
"I  c #595655",
"U  c #5B5955",
"Y  c #565559",
"T  c #5A565C",
"R  c #5C5B5B",
"E  c #635F5C",
"W  c #62605D",
"Q  c #5A5762",
"!  c #5D5A62",
"~  c #595369",
"^  c #615E64",
"/  c #636263",
"(  c #696663",
")  c #6C6B67",
"_  c #64626B",
"`  c #68656C",
"'  c #6C6B6B",
"]  c #706C67",
"[  c #736D6F",
"{  c #73726E",
"}  c #6D6774",
"|  c #6D6A72",
" . c #676879",
".. c #6D6979",
"X. c #766B74",
"o. c #786F75",
"O. c #726D7C",
"+. c #757574",
"@. c #727278",
"#. c #79777C",
"$. c #7E747C",
"%. c #7B7C7B",
"&. c #83827E",
"*. c #706F86",
"=. c #7F7581",
"-. c #7A7881",
";. c #847A83",
":. c #847E83",
">. c #837885",
",. c #878183",
"<. c #848186",
"1. c #898987",
"2. c #8A838C",
"3. c #8F8D8E",
"4. c #928D8A",
"5. c #8D8296",
"6. c #908D91",
"7. c #928894",
"8. c #9F8F92",
"9. c #969097",
"0. c #9B9096",
"q. c #9A9996",
"w. c #95949C",
"e. c #9C9B9B",
"r. c #9694A0",
"t. c #9A91A6",
"y. c #A19CA0",
"u. c #A59FA1",
"i. c #A29FB7",
"p. c #A4A2A6",
"a. c #AFAAAB",
"s. c #AAA8BA",
"d. c #B2B1B2",
"f. c #B9B3B4",
"g. c #B7B3B9",
"h. c #B8B6B9",
"j. c #C4BDCB",
"k. c #C4C3CB",
"l. c #CBC7C8",
"z. c #D3C8CA",
"x. c #D1CDD2",
"c. c #D7D5D6",
"v. c #EAE0E6",
"b. c #EBE7F0",
"n. c #F3EEF4",
"m. c #FBFBFD",
/* pixels */
"i.h 1 M ~ *.u b.! M   ; d S D t F J M ` p.9.6.5.s.6.5.O.T _ r t B k V c f V M i M ;.7.=.$.>.t...",
"x L 9 G M H y n V k N 6 q z k Z Z P E N c P k M   j.u.E l 3 z ; q.P G W U V ] H n h ' R k m N B ",
"P k 7 /   * n Z S G M   5 k N J k S n c N f f e # N V &.N t W 4 k N P P r , / N q B t / G G P M ",
"R A j > r M z M G P B g i f N n Z k z z f a e x.@ k c c N M z 9 a d.,.[ N c k d d N B A U P U V ",
"M M a > q r N I S G F p e N k f V z N k % O z f N f z V z N f # n 7 U S z S F ] R c d k M b M M ",
"b L P 4 q z c G M S M e 5 8 7 e a r q t v.M c I N e c k s l z 7 f d k S F N z +.a 7 M M b k h k ",
"4 p > @ 7 a P k k k / : q 4 e e e 7 . t t e j r q a a k 0 a 4 & > d j e 7 B u   * : i 4 4 g a u ",
"% *     @ 6 & * @ * O   @   % * q n e o s s P 9 0 X $ ; $ r . d r , 7 q 7 7 5 q 9 d 9 e 9 a 7 7 ",
"R e C | P M w.y * 0 , Z & e a | H G F B N j % Q n b K z.l.Z _ N d k d f r 3 z J n ^ ] W / ,.X.q ",
"w F g k j c P C A a k d a e M L H G S B m k M B j 7 w N E s d r k c l f z N c N z c l F N c z N ",
"e d b k M A N M M b b b j 7 e G S S B P S N S S h > k P z M f t G c f k f c z z N c c F K N c V ",
", a j j j n A j M C n k a 4 M Y G S G F H S B B ! & a s Z M c d d c f x z c f f N D F r K W V c ",
"H 5 a a g h j k j n a j a u 9 a B U S H S R R M 7 X h h I Z S e 7 k c k k k l c z D D K V c c s ",
"A 0 % p e t j M n w % k e > f a L B S m M N M g j > f a h M s n a M k c z l k t z l c c f c c f ",
"a b g , e 0 u M a a u q ' ; a q 9 p d d d g j b 6 * e N a e t 0 7 , , B k f f k f N c l t d r e ",
"e e , * O S w e 7 M d a 7 | 6 0 p e u u e p 4 y u % e Y k f k i e , * h r 7 q * < * = z c 0 - k ",
"j %.e O t a -.L C H ! O S Q R b d B e : e % n.:.<.0.8.o.^ j.y.; z k p.Z v.Z V e P k ;.a.a.h.c.# ",
"k S S 7 C L Y Y C C i O   & N k N f k   q m.N g S S g S P M Z S Z F F F N Z l a.z N a n U V V k ",
"S N j * g 4 C H A H B g P k V G M N x h M d B S Y P H R S P Z A S I I F E I k s I l z U P V V S ",
"S s g * g b  .H J A b T r z A M V c c S 0 e b S H S S P S H k P Z A S C N N c r < c c N N G V V ",
"t k 0 , g g b C C C B b 7 j h z N c k 7 , ) h m m m S B M b j M A M M S x N c y @ l c D N I N V ",
"p h a - b h u b v b j k 7 a d 3 M x f O * 1 k j j b M M b a M b j j d z x N f i @ N z z V V E M ",
"^ k 0 a u g j p h b k i @ a g e q > w : & M / k M m a e p u e e w t e w q a r , = l s l e I c N ",
", 0 b 7 , m e p a q 0 h 4 a u 4 q , > & X , p a g u f w > 4 7 4 e p e 7 q 1 r = N 8 r t z d e r ",
"@   @     O o @ 6     X + + 4 C M k 0 % Y h a * b T R @.J e @ 2 > w.<.b z z c c r = s t (   7 z ",
"O     & - ; A ` e.@.j :.+ a k k z a i k N k b S   u ' x.y w 0 X.O.2.3.@ Z f < N E z N c f.8 R f ",
"M P P P L B S F P g w t h M N B a g k M M k c N M @ +.a n Y ; d I F F G F F F E N z c V c d t c ",
"m 0 N S B A S F B g e p x N B B z S N A S Z N V M n > * P , 7 s a R J S Z N c W z c c c c h k c ",
"M B B S k x x S V p 7 a k M S M / k N A N h S S A N a 7 o 4 7 f n F n J c K K c D c c z x N I k ",
"a S M M k k x x x m u M k M m x + M N c M B B S S M M N u R , t s M M N K c c c c z z z c n ) W ",
"j M M k k M k c M h * , a d g > a f x c c N k N M Z k h P 0 < s q k c c c c c c c c z c c k q.c ",
"P k h k M j d N a q * 0 0 d e * e d d k h d k k M k v g H 0 3 f l l c c c c c K c c z { f J 7 c ",
"a p p e 0 > > 7 9 * * 7 u 7   : 5 > * 4 i i e i w q 0 w 2 7 - 9 9 k e k G , - 9 e 0 q e 7   k p ",
"H C S Y 4 g O w M ^ H g a b + d & . n 7.g.i #.* h s < ; F W $ P I e S s U 9 7 d 7 c.( u * 3.2 , ",
"b a j v ..j 0 1 j g b T r.T _ > i A J I K Q ` g K 4.D c F c K F K W E ) ] K k N = M f N c Y c k ",
"b b k j B a a e t b n A M k e e.f N A N N B Z z ; l c U F U U c c V D F c c c f z h f k B 1.k 9 ",
"A C p j b j a b w g / M H A O > d N m Z S r j c s k c K K G F W F F F F F l c k Z x h k x t - d ",
"p p y g p g e a 0 M C a g e , p e j d e h a h f 3 c c l c G V V o c N c F c t f F h c k x d k d ",
"6 w p y u u u 0 * g g j e u M u p a a 7 a a t 7 8 r c f 3 c c 8 3 d t t c k c t , * a d t a e 1 ",
": 6 : 4 w 4 M   w e S g 0 e *   > S u e w a 7 u   8 d k V t f   c d z k 3 t G ) . 8 A d q a e b ",
"4   X       6 1 9 , h e t x R S P 2 4 + < 7 = r c 0 7 +   h L B _ , & ) 6.N P j.p.#.g | g.:.-.} ",
" .H H e Y R V c c P # q.k._ O.O._ ^ e Z r # S R &.8 q ; $ U x H P Y F S G N N S P R R R Y R / L ",
"v _ 4 , r P F S G G G M k c S k f t M e r 9 s k k c f z * a P F P U S P L L S R S G R P Y S k c ",
"b A b > f W F N U P B M x c G I x c e j r r r q f f z d 7 x Y Y B B L B x N b S F P S N V M ) N ",
"b A p * d N S M A k c k N N M B k k k X r r t t c G t # * m N C B M B L N S B M B M M k B S N W ",
"b A y   t M x B d f x k x N V V N c f   t r t a t 2 k 8 , k M M B B M L H S C M A S B N S B N %.",
"j m w   7 M b n d h b m x c V c N p P o r t r r d d 8 f 4 b M m B m N B M B h h k m x m M N S N ",
"p w v * Q g g a d e H M a p e p u u g 7 t r e s a r 9 a : 0 a g u a u p k j a k d t a a a a e k "
};
